# xmcd
#
# Track frame offsets:
# 150
# 11705
# 27130
# 43530
# 59805
# 71170
# 86715
# 102095
# 118885
# 134285
# 147125
# 162290
# 177490
# 193965
# 209855
#
# Disc length: 3083 seconds
#
#
# Revision: 0
# Processed by: cddbd v1.5.1PL2 Copyright (c) Steve Scherf et al.
# Submitted via: FreeRIP 2.945 
#
DISCID=ea0c090f
DTITLE=GUTO E NANDO - VIROU MANIA
DYEAR=2006
DGENRE=Country
TTITLE0=VIROU MANIA
TTITLE1=RIBEIRAO A MIAMI
TTITLE2=QUANDO O AMOR SE VAI(TELL ME WHY)
TTITLE3=FLASHBACH
TTITLE4=A CASA FICOU PEQUENA
TTITLE5=AGITO DO MEU POVO
TTITLE6=DIFERENÇAS
TTITLE7=LAGRIMAS
TTITLE8=A DOR DA SAUDADE
TTITLE9=EU NÃO DIVIDO NÃO
TTITLE10=FICA COMIGO
TTITLE11=FATOS E FOTOS
TTITLE12=ARCO-IRIS
TTITLE13=BAR EM BAR
TTITLE14=POUT POURRI:TO INDO TE BUSCAR/ELA E SHOW
EXTD=
EXTT0=
EXTT1=
EXTT2=
EXTT3=
EXTT4=
EXTT5=
EXTT6=
EXTT7=
EXTT8=
EXTT9=
EXTT10=
EXTT11=
EXTT12=
EXTT13=
EXTT14=
PLAYORDER=
